<?xml version="1.0" encoding="utf-8"?>
<!-- Generator: Adobe Illustrator 25.2.1, SVG Export Plug-In . SVG Version: 6.00 Build 0)  -->
<svg version="1.1" id="Layer_1" xmlns="http://www.w3.org/2000/svg" xmlns:xlink="http://www.w3.org/1999/xlink" x="0px" y="0px"
	 viewBox="0 0 98 26" style="enable-background:new 0 0 98 26;" xml:space="preserve">
<style type="text/css">
	.st0{fill:#2E8B57;}
</style>
<g>
	<path class="st0" d="M23.8,26h-8.7v-4l-3.3,2.7L8.6,22v4H0V4.4h8.5l3.3,4.1l3.4-4.1h8.6V26z"/>
	<path class="st0" d="M38.8,26H25.4V4.4h13.4V26z"/>
	<path class="st0" d="M57.4,26H40.5V4.4h13.4v14.9h3.5V26z"/>
	<path class="st0" d="M79,22.7c0,2.1-1.2,3.3-3.3,3.3H61.9c-2.5,0-3.3-1.1-3.3-3.3V7.7c0-2.2,1.2-3.3,3.3-3.3h13.8
		c2,0,3.3,0.8,3.3,3.3V22.7z M70.4,19.9v-9.4h-3.2v9.4H70.4z"/>
	<path class="st0" d="M98,11.1h-3.9v2.4H98v9.2c0,2-1.1,3.3-3.3,3.3H80.5v-6.7h3.9v-2.5h-3.9V7.7c0-2.3,1.2-3.3,3.3-3.3H98V11.1z
		 M95.2,0l-3.5,3.8h-4L84.1,0h4.2l1.3,1.8L91,0H95.2z"/>
</g>
</svg>
