<?xml version="1.0" encoding="utf-8"?>
<!-- Generator: Adobe Illustrator 25.2.1, SVG Export Plug-In . SVG Version: 6.00 Build 0)  -->
<svg version="1.1" id="Layer_1" xmlns="http://www.w3.org/2000/svg" xmlns:xlink="http://www.w3.org/1999/xlink" x="0px" y="0px"
	 viewBox="0 0 52.6 52.5" style="enable-background:new 0 0 52.6 52.5;" xml:space="preserve">
<style type="text/css">
	.st0{fill:#FFFFFF;}
	.st1{fill:url(#SVGID_1_);}
	.st2{fill:url(#SVGID_2_);}
</style>
<rect class="st0" width="52.6" height="52.5"/>
<g>
	
		<linearGradient id="SVGID_1_" gradientUnits="userSpaceOnUse" x1="23.3674" y1="55.536" x2="49.3674" y2="55.536" gradientTransform="matrix(1 0 0 -1 0 81.8056)">
		<stop  offset="0" style="stop-color:#3D6037"/>
		<stop  offset="1" style="stop-color:#182F17"/>
	</linearGradient>
	<path class="st1" d="M49.4,26.3v13c-3.2,0-5.9-2.6-5.9-5.9v-7.1l0,0v-0.1c0-3.9-3.2-7.2-7.1-7.2c-4,0-7.2,3.2-7.2,7.2v13
		c-3.2,0-5.9-2.6-5.9-5.9v-7c0-7.2,5.8-13,13-13S49.4,19.1,49.4,26.3z"/>
	
		<linearGradient id="SVGID_2_" gradientUnits="userSpaceOnUse" x1="3.2174" y1="55.536" x2="29.2174" y2="55.536" gradientTransform="matrix(1 0 0 -1 0 81.8056)">
		<stop  offset="0" style="stop-color:#3D6037"/>
		<stop  offset="1" style="stop-color:#182F17"/>
	</linearGradient>
	<path class="st2" d="M29.2,26.3v13c-3.2,0-5.9-2.6-5.9-5.9v-7.1l0,0v-0.1c0-3.9-3.2-7.2-7.1-7.2c-4,0-7.2,3.2-7.2,7.2v13
		c-3.2,0.1-5.8-2.5-5.8-5.8v-7.1c0-7.2,5.8-13,13-13S29.2,19.1,29.2,26.3z"/>
</g>
</svg>
