<?xml version="1.0" encoding="utf-8"?>
<!-- Generator: Adobe Illustrator 25.2.1, SVG Export Plug-In . SVG Version: 6.00 Build 0)  -->
<svg version="1.1" id="Layer_1" xmlns="http://www.w3.org/2000/svg" xmlns:xlink="http://www.w3.org/1999/xlink" x="0px" y="0px"
	 viewBox="0 0 86.5 26" style="enable-background:new 0 0 86.5 26;" xml:space="preserve">
<style type="text/css">
	.st0{fill:url(#SVGID_1_);}
	.st1{fill:url(#SVGID_2_);}
	.st2{fill:url(#SVGID_3_);}
	.st3{fill:url(#SVGID_4_);}
</style>
<linearGradient id="SVGID_1_" gradientUnits="userSpaceOnUse" x1="60.5247" y1="12.89" x2="86.5247" y2="12.89" gradientTransform="matrix(1 0 0 -1 0 25.89)">
	<stop  offset="0" style="stop-color:#3D6037"/>
	<stop  offset="1" style="stop-color:#182F17"/>
</linearGradient>
<path class="st0" d="M86.5,13v13c-3.2,0-5.8-2.6-5.8-5.9V13l0,0v-0.1c0-3.9-3.2-7.2-7.2-7.2s-7.2,3.2-7.2,7.2v13
	c-3.2,0-5.8-2.6-5.8-5.9v-7c0-7.2,5.8-13,13-13C80.7,0,86.5,5.8,86.5,13z"/>
<linearGradient id="SVGID_2_" gradientUnits="userSpaceOnUse" x1="40.3" y1="12.89" x2="66.3" y2="12.89" gradientTransform="matrix(1 0 0 -1 0 25.89)">
	<stop  offset="0" style="stop-color:#3D6037"/>
	<stop  offset="1" style="stop-color:#182F17"/>
</linearGradient>
<path class="st1" d="M66.3,13v13c-3.2,0-5.8-2.6-5.8-5.9V13l0,0v-0.1c0-3.9-3.2-7.2-7.2-7.2s-7.1,3.2-7.1,7.2v13
	c-3.2,0-5.9-2.6-5.9-5.9v-7c0-7.2,5.8-13,13-13S66.3,5.8,66.3,13z"/>
<linearGradient id="SVGID_3_" gradientUnits="userSpaceOnUse" x1="20.15" y1="12.89" x2="46.15" y2="12.89" gradientTransform="matrix(1 0 0 -1 0 25.89)">
	<stop  offset="0" style="stop-color:#3D6037"/>
	<stop  offset="1" style="stop-color:#182F17"/>
</linearGradient>
<path class="st2" d="M46.2,13v13c-3.2,0-5.9-2.6-5.9-5.9V13l0,0v-0.1c0-3.9-3.2-7.2-7.1-7.2c-4,0-7.2,3.2-7.2,7.2v13
	c-3.2,0-5.9-2.6-5.9-5.9v-7c0-7.2,5.8-13,13-13S46.2,5.8,46.2,13z"/>
<linearGradient id="SVGID_4_" gradientUnits="userSpaceOnUse" x1="0" y1="12.89" x2="26" y2="12.89" gradientTransform="matrix(1 0 0 -1 0 25.89)">
	<stop  offset="0" style="stop-color:#3D6037"/>
	<stop  offset="1" style="stop-color:#182F17"/>
</linearGradient>
<path class="st3" d="M26,13v13c-3.2,0-5.9-2.6-5.9-5.9V13l0,0v-0.1c0-3.9-3.2-7.2-7.1-7.2c-4,0-7.2,3.2-7.2,7.2v13
	C2.6,26,0,23.4,0,20.1V13C0,5.8,5.8,0,13,0S26,5.8,26,13z"/>
</svg>
